# xmcd
#
# Track frame offsets:
#	150
#	12142
#	22656
#	35964
#	46513
#	60146
#	77844
#	93447
#	110140
#	120616
#	134945
#	151466
#
# Disc length: 2205 seconds
#
# Revision: 1
# Processed by: cddbd v1.5.2PL0 Copyright (c) Steve Scherf et al.
# Submitted via: EasyCDDAExtractor 12.0.0.1
#
DISCID=93089b0c
DTITLE=Charlie Louvin - Sings Murder Ballads And Disaster Songs
DYEAR=2008
DGENRE=Country
TTITLE0=Darling Corey
TTITLE1=Wreck Of The Old 97 
TTITLE2=Wreck On The Highway
TTITLE3=Katy Dear
TTITLE4=Down With The Old Canoe
TTITLE5=The Little Grave In Georgia
TTITLE6=Dark As A Dungeon
TTITLE7=My Brother's Will
TTITLE8=Dixie Boll Weevil
TTITLE9=Is This My Destiny
TTITLE10=Mary Of The Wild Moor
TTITLE11=My Texas Girl
EXTD=YEAR: 2008
EXTT0=
EXTT1=
EXTT2=
EXTT3=
EXTT4=
EXTT5=
EXTT6=
EXTT7=
EXTT8=
EXTT9=
EXTT10=
EXTT11=
PLAYORDER=
